<svg xmlns="http://www.w3.org/2000/svg" viewBox="0 0 500 500">
  <rect width="500" height="500" fill="white"/>

  <!-- Outer D bold shape -->
  <path fill="#1a1a1a" d="M 72 56 L 225 56 Q 448 56 448 250 Q 448 444 225 444 L 72 444 Z"/>

  <!-- Inner D white cutout -->
  <path fill="white" d="M 128 110 L 212 110 Q 384 110 384 250 Q 384 390 212 390 L 128 390 Z"/>

  <!-- i-dot rectangle (small dark block in upper-left of inner space) -->
  <rect fill="#1a1a1a" x="158" y="110" width="58" height="44"/>

  <!-- i-stem (thin dark vertical bar) -->
  <rect fill="#1a1a1a" x="158" y="158" width="28" height="232"/>

  <!-- G lower body (fills lower half of right inner space) -->
  <path fill="#1a1a1a" d="M 186 250 L 384 250 Q 384 390 212 390 L 186 390 Z"/>

  <!-- G crossbar (dark horizontal bar at mid-height) -->
  <rect fill="#1a1a1a" x="186" y="228" width="198" height="44"/>

  <!-- G inner concave (white bowl inside G arc) -->
  <path fill="white" d="M 228 272 Q 344 272 344 320 Q 340 388 255 388 L 228 388 Z"/>
</svg>
